PathFileType	4	(X/Y/Z)	C:\Users\avatar\Documents\avatar\mocap1\10002-20130626160334-Unnamed.trc
DataRate	CameraRate	NumFrames	NumMarkers	Units	OrigDataRate	OrigDataStartFrame	OrigNumFrames
400.00	400.00	       74	0	mm	400.00	295	       882
Frame#	Time	
		

295	0.735	-139.22141	761.07574	-149.14838	-143.84956	1200.35181	-197.58051				277.66776	451.92822	-126.16593	
296	0.738	-140.10446	759.95917	-148.74672	-144.38087	1200.53027	-197.60625				277.35223	451.84262	-126.35951	
297	0.740	-140.86807	758.79993	-148.27333	-145.03679	1200.96045	-197.70247				277.21362	451.76248	-126.41196	
298	0.743				-145.73103	1201.08423	-197.49733				276.87082	451.61035	-126.80181	
299	0.745				-146.34497	1201.23303	-197.61086				276.13486	451.02054	-126.87084	
300	0.748				-147.15927	1201.52905	-197.56108				275.73682	450.99677	-126.79806	
301	0.750				-147.79187	1201.74963	-197.43829				275.18118	450.91409	-126.92359	
302	0.752				-148.33006	1202.35291	-197.42494				274.91278	450.85809	-127.07837	
303	0.755				-148.91451	1202.62561	-197.40889				274.40814	450.30637	-127.04002	
304	0.757	-17255.06836	1829.00562	-526.09039	-149.50006	1202.88281	-197.39130				274.15903	450.31592	-126.89349	
305	0.760				-150.11777	1203.22314	-197.43584	-693.31030	-1405.01526	1071.16223	273.44492	450.28763	-126.85503	-17179.36719	1831.68140	-522.89893	
306	0.762	-17106.65234	1836.06873	-520.63190	-150.74245	1203.58423	-197.38300				272.78677	450.20090	-127.16528	
307	0.765	-17041.66016	1841.22070	-518.06647	-151.53207	1203.75977	-197.38724				272.18939	450.03778	-127.47108	
308	0.767	-16973.86523	1845.42651	-515.74176	-151.80811	1203.92310	-197.35770	-695.21021	-1402.58057	1068.88928	272.12991	449.99896	-127.54372	
309	0.770	-16908.39648	1848.97742	-513.72217	-152.17920	1204.15686	-197.34753				271.72534	449.91180	-127.77273	
310	0.772				-153.25882	1204.35254	-197.39603				270.93280	449.86444	-128.06920	
311	0.775				-153.92784	1204.49316	-197.40887				270.61545	449.77225	-128.22801	
312	0.777	-529.34320	765.68835	-34.83215	-154.71222	1204.59851	-197.66341				269.59113	449.79523	-128.22701	
313	0.780				-155.60747	1204.47290	-197.94325	-529.02820	765.18726	-34.92080	268.61154	449.82693	-128.17732	
314	0.783				-156.79811	1204.63904	-198.13896	-528.37250	764.93359	-35.08525	267.68216	449.80066	-128.24910	
315	0.785				-156.84712	1205.17114	-197.81166	-527.80542	763.90179	-35.26930	267.11127	449.62506	-128.71082	
316	0.788				-158.20645	1204.31567	-198.60083	-525.90497	763.17310	-35.73663	265.82117	449.62851	-128.78458	
317	0.790				-158.98546	1204.40076	-198.82858	-524.26001	762.60706	-36.59882	264.42685	449.56982	-128.95108	
318	0.793				-158.89687	1204.95569	-198.64526	-523.64063	761.95734	-36.71444	262.90820	448.93979	-129.19347	
319	0.795				-159.52943	1205.04663	-198.79971	-521.23944	761.18427	-36.95858	261.27963	448.89343	-129.27808	
320	0.798				-159.93857	1205.23584	-198.81230	-520.10950	760.39996	-37.37206	259.33755	448.83182	-129.52617	
321	0.800				-160.04459	1205.44092	-198.84520	-519.29865	759.91406	-37.65195	257.38052	448.67819	-130.03398	
322	0.803				-160.94749	1205.43860	-199.29012	-516.95081	758.72272	-38.31629	
323	0.805				-160.96680	1205.67590	-199.23109	-514.86957	758.09369	-39.26803	
324	0.808				-161.77086	1205.95715	-199.36795	-514.83923	757.60492	-39.73229	
325	0.810				-162.11475	1206.03394	-199.32072	-511.82260	757.01495	-40.61575	
326	0.813				-162.24016	1206.30151	-199.33340	-509.79727	756.63666	-41.28781	
327	0.815	-15687.63086	1728.02441	-494.07330	-162.52690	1206.59045	-199.39771	-504.90955	755.08655	-42.52703	
328	0.817				-162.78352	1206.68677	-199.42319	-505.08310	754.52539	-43.21892	-15611.40234	1729.43982	-491.16040	
329	0.820	-15.91737	1290.84863	-63.68726	-163.06140	1206.77161	-199.44646	-503.35822	753.09436	-44.26859				-15540.00391	1732.41284	-488.60724	
330	0.822				-163.58620	1206.90063	-199.61603	-500.10214	752.50684	-45.23126	-17.09855	1290.81543	-63.27124				-15469.96094	1735.57214	-486.21136	
331	0.825	-18.97669	1290.57117	-62.62270	-163.64052	1207.21521	-199.70363	-497.48721	751.69348	-46.04221				-15404.06934	1739.65991	-484.27872	
332	0.827				-164.36859	1207.25220	-199.89130	-494.84915	750.16217	-47.53851	-19.94443	1290.61353	-62.22014	-15339.18750	1742.37830	-482.04364	
333	0.830	-20.99649	1290.71423	-61.80698	-164.53918	1207.31470	-200.02412	-491.37061	749.36493	-48.57707				-15278.33105	1744.42224	-480.82645	
334	0.832	-22.04880	1290.79517	-61.41528	-164.72734	1207.50085	-200.19907	-488.12073	748.47278	-49.68635	
335	0.835	-23.45351	1290.86450	-61.03024	-164.65274	1207.85168	-200.11232	-484.75980	747.91162	-50.79365	
336	0.837	-25.42959	1290.55713	-60.14774	-164.93825	1208.21985	-200.18993	-482.68759	746.52130	-51.82360	
337	0.840	-26.05377	1290.92700	-59.98193	-165.14665	1208.46667	-200.22998	-478.16415	744.99945	-52.86098	
338	0.842	-27.51814	1290.78345	-59.49047	-165.78694	1208.52881	-200.50352	-474.50507	744.13892	-54.05059	
339	0.845	-28.53985	1290.99585	-59.07379	-165.44940	1209.15845	-200.40833				-85.67514	817.29657	-150.71062	
340	0.848	-30.09228	1290.93152	-58.39680	-165.58600	1209.82910	-200.31436				-82.69689	821.86536	-151.19165	
341	0.850	-31.56535	1290.96179	-57.79323	-165.13608	1210.54919	-200.20543				-79.80315	826.06030	-151.70735	
342	0.853	-32.84600	1290.95374	-57.13179	-164.94382	1210.96545	-200.13174				-76.86224	830.72498	-152.09918	
343	0.855	-34.08795	1291.19531	-56.76192	-165.17670	1211.46069	-200.39021				-74.37897	835.28528	-152.76515	
344	0.858	-35.19519	1291.08875	-56.40477	-165.01949	1212.18286	-200.24742				-71.51226	840.40009	-153.25462	
345	0.860	-37.09692	1290.94812	-55.64281	-164.70789	1212.65613	-200.28612	-14467.41992	1641.10645	-446.20651	-68.66280	845.14136	-153.77519	
346	0.863	-38.39046	1291.01489	-55.02767	-164.64828	1213.44434	-200.15173				-65.79091	850.19598	-154.28999	-14393.32227	1642.22949	-442.81845	
347	0.865	-39.87410	1290.92346	-54.46774	-164.68604	1213.87634	-200.18016	3.24471	50.51175	11.87639	-62.90563	855.30029	-154.68665				-14328.00781	1644.86670	-441.16522	
348	0.868				-164.25706	1215.11035	-200.02393				-60.08173	860.67322	-155.25798	1.35598	49.79785	11.01217	
349	0.870	1.09537	49.20083	9.46317	-164.35373	1215.49829	-200.07309				-57.31890	866.05774	-156.03719	
350	0.873				-164.08688	1216.18579	-199.98796	-14130.04199	1600.40735	-464.10614	-54.51712	871.48297	-156.66095	-0.03927	48.78999	8.16733	
351	0.875	-14055.24316	1598.85913	-460.40417	-163.35045	1218.07935	-199.72469				-51.87335	877.02252	-157.38391				-0.80422	48.29593	6.70943	
352	0.877				-162.91292	1218.78870	-199.45847	-13981.96582	1599.65161	-457.84674	-49.29343	882.61005	-157.83342	-1.36693	47.45718	5.35953	
353	0.880				-162.54152	1219.59412	-199.11990	-13911.01953	1601.73889	-455.24951				-2.50204	46.55754	4.25437	
354	0.882				-162.39719	1221.01062	-198.98885	-13844.10254	1605.03235	-452.82941				-2.98451	46.05938	2.63872	
355	0.885				-161.93787	1221.67310	-198.91962	-13778.17871	1607.15747	-450.76575	
356	0.887	-40.10495	904.03345	-160.05692	-162.12910	1222.49670	-199.02054	-13715.88281	1608.35315	-449.41681	
357	0.890	-37.94589	909.69788	-160.10370	-161.65665	1223.79883	-198.66595	
358	0.892	-34.98302	915.90167	-161.82573	-161.36409	1224.78857	-198.49995	
359	0.895	-32.40544	922.03162	-162.80327	-160.85590	1225.98315	-198.23111	
360	0.897	-30.07524	928.10608	-163.58139	-160.35524	1226.93970	-198.01952	
361	0.900	-28.19588	933.88599	-164.26338	-160.32385	1228.15759	-197.83902	
362	0.902	-26.05354	939.73792	-164.06361	-159.60243	1229.59961	-197.56784	
363	0.905	-23.46547	946.41406	-166.26065	-159.15169	1230.74353	-197.29056	
364	0.908	-21.40095	952.51447	-167.27742	-158.76878	1231.95300	-197.09264	
365	0.910	-19.19902	958.85980	-168.29819	-158.58238	1233.03821	-196.90381	81.78779	44.94782	271.89996	
366	0.913	-17.28588	965.22455	-169.34593	-158.18787	1234.71509	-196.60712	
367	0.915	-15.35209	971.32727	-170.36131	-157.32687	1235.99634	-196.12297	-1272.99011	248.33815	317.87012	
368	0.918	-13.61645	977.65112	-171.35428	-157.02409	1237.37878	-195.96863				-1269.08411	247.81325	317.11978	-12912.96582	1491.10083	-418.72894	
